%TF.GenerationSoftware,KiCad,Pcbnew,10.0.4*%
%TF.CreationDate,2026-07-25T17:27:34-04:00*%
%TF.ProjectId,USB23.5mm,55534232-332e-4356-9d6d-2e6b69636164,rev?*%
%TF.SameCoordinates,Original*%
%TF.FileFunction,Drillmap*%
%TF.FilePolarity,Positive*%
%FSLAX45Y45*%
G04 Gerber Fmt 4.5, Leading zero omitted, Abs format (unit mm)*
G04 Created by KiCad (PCBNEW 10.0.4) date 2026-07-25 17:27:34*
%MOMM*%
%LPD*%
G01*
G04 APERTURE LIST*
%ADD10C,0.050000*%
%ADD11C,0.200000*%
%ADD12C,0.100000*%
%ADD13C,0.170000*%
G04 APERTURE END LIST*
D10*
X12250000Y-6690000D02*
X17750000Y-6690000D01*
X17750000Y-12190000D01*
X12250000Y-12190000D01*
X12250000Y-6690000D01*
D11*
D12*
X13028000Y-8628500D02*
X13093000Y-8693500D01*
X13093000Y-8628500D02*
X13028000Y-8693500D01*
X13028000Y-9206500D02*
X13093000Y-9271500D01*
X13093000Y-9206500D02*
X13028000Y-9271500D01*
D13*
X14025000Y-10780000D02*
G75*
G02*
X13855000Y-10780000I-85000J0D01*
G01*
X13855000Y-10780000D02*
G75*
G02*
X14025000Y-10780000I85000J0D01*
G01*
X14025000Y-11480000D02*
G75*
G02*
X13855000Y-11480000I-85000J0D01*
G01*
X13855000Y-11480000D02*
G75*
G02*
X14025000Y-11480000I85000J0D01*
G01*
D11*
X12508277Y-12503984D02*
X12508277Y-12303984D01*
X12508277Y-12303984D02*
X12555896Y-12303984D01*
X12555896Y-12303984D02*
X12584467Y-12313508D01*
X12584467Y-12313508D02*
X12603515Y-12332555D01*
X12603515Y-12332555D02*
X12613039Y-12351603D01*
X12613039Y-12351603D02*
X12622562Y-12389698D01*
X12622562Y-12389698D02*
X12622562Y-12418269D01*
X12622562Y-12418269D02*
X12613039Y-12456365D01*
X12613039Y-12456365D02*
X12603515Y-12475412D01*
X12603515Y-12475412D02*
X12584467Y-12494460D01*
X12584467Y-12494460D02*
X12555896Y-12503984D01*
X12555896Y-12503984D02*
X12508277Y-12503984D01*
X12708277Y-12503984D02*
X12708277Y-12370650D01*
X12708277Y-12408746D02*
X12717801Y-12389698D01*
X12717801Y-12389698D02*
X12727324Y-12380174D01*
X12727324Y-12380174D02*
X12746372Y-12370650D01*
X12746372Y-12370650D02*
X12765420Y-12370650D01*
X12832086Y-12503984D02*
X12832086Y-12370650D01*
X12832086Y-12303984D02*
X12822562Y-12313508D01*
X12822562Y-12313508D02*
X12832086Y-12323031D01*
X12832086Y-12323031D02*
X12841610Y-12313508D01*
X12841610Y-12313508D02*
X12832086Y-12303984D01*
X12832086Y-12303984D02*
X12832086Y-12323031D01*
X12955896Y-12503984D02*
X12936848Y-12494460D01*
X12936848Y-12494460D02*
X12927324Y-12475412D01*
X12927324Y-12475412D02*
X12927324Y-12303984D01*
X13060658Y-12503984D02*
X13041610Y-12494460D01*
X13041610Y-12494460D02*
X13032086Y-12475412D01*
X13032086Y-12475412D02*
X13032086Y-12303984D01*
X13289229Y-12503984D02*
X13289229Y-12303984D01*
X13289229Y-12303984D02*
X13355896Y-12446841D01*
X13355896Y-12446841D02*
X13422562Y-12303984D01*
X13422562Y-12303984D02*
X13422562Y-12503984D01*
X13603515Y-12503984D02*
X13603515Y-12399222D01*
X13603515Y-12399222D02*
X13593991Y-12380174D01*
X13593991Y-12380174D02*
X13574943Y-12370650D01*
X13574943Y-12370650D02*
X13536848Y-12370650D01*
X13536848Y-12370650D02*
X13517801Y-12380174D01*
X13603515Y-12494460D02*
X13584467Y-12503984D01*
X13584467Y-12503984D02*
X13536848Y-12503984D01*
X13536848Y-12503984D02*
X13517801Y-12494460D01*
X13517801Y-12494460D02*
X13508277Y-12475412D01*
X13508277Y-12475412D02*
X13508277Y-12456365D01*
X13508277Y-12456365D02*
X13517801Y-12437317D01*
X13517801Y-12437317D02*
X13536848Y-12427793D01*
X13536848Y-12427793D02*
X13584467Y-12427793D01*
X13584467Y-12427793D02*
X13603515Y-12418269D01*
X13698753Y-12370650D02*
X13698753Y-12570650D01*
X13698753Y-12380174D02*
X13717801Y-12370650D01*
X13717801Y-12370650D02*
X13755896Y-12370650D01*
X13755896Y-12370650D02*
X13774943Y-12380174D01*
X13774943Y-12380174D02*
X13784467Y-12389698D01*
X13784467Y-12389698D02*
X13793991Y-12408746D01*
X13793991Y-12408746D02*
X13793991Y-12465888D01*
X13793991Y-12465888D02*
X13784467Y-12484936D01*
X13784467Y-12484936D02*
X13774943Y-12494460D01*
X13774943Y-12494460D02*
X13755896Y-12503984D01*
X13755896Y-12503984D02*
X13717801Y-12503984D01*
X13717801Y-12503984D02*
X13698753Y-12494460D01*
X13879705Y-12484936D02*
X13889229Y-12494460D01*
X13889229Y-12494460D02*
X13879705Y-12503984D01*
X13879705Y-12503984D02*
X13870182Y-12494460D01*
X13870182Y-12494460D02*
X13879705Y-12484936D01*
X13879705Y-12484936D02*
X13879705Y-12503984D01*
X13879705Y-12380174D02*
X13889229Y-12389698D01*
X13889229Y-12389698D02*
X13879705Y-12399222D01*
X13879705Y-12399222D02*
X13870182Y-12389698D01*
X13870182Y-12389698D02*
X13879705Y-12380174D01*
X13879705Y-12380174D02*
X13879705Y-12399222D01*
D12*
X12182500Y-12800000D02*
X12247500Y-12865000D01*
X12247500Y-12800000D02*
X12182500Y-12865000D01*
D11*
X12546372Y-12723984D02*
X12565420Y-12723984D01*
X12565420Y-12723984D02*
X12584467Y-12733508D01*
X12584467Y-12733508D02*
X12593991Y-12743031D01*
X12593991Y-12743031D02*
X12603515Y-12762079D01*
X12603515Y-12762079D02*
X12613039Y-12800174D01*
X12613039Y-12800174D02*
X12613039Y-12847793D01*
X12613039Y-12847793D02*
X12603515Y-12885888D01*
X12603515Y-12885888D02*
X12593991Y-12904936D01*
X12593991Y-12904936D02*
X12584467Y-12914460D01*
X12584467Y-12914460D02*
X12565420Y-12923984D01*
X12565420Y-12923984D02*
X12546372Y-12923984D01*
X12546372Y-12923984D02*
X12527324Y-12914460D01*
X12527324Y-12914460D02*
X12517801Y-12904936D01*
X12517801Y-12904936D02*
X12508277Y-12885888D01*
X12508277Y-12885888D02*
X12498753Y-12847793D01*
X12498753Y-12847793D02*
X12498753Y-12800174D01*
X12498753Y-12800174D02*
X12508277Y-12762079D01*
X12508277Y-12762079D02*
X12517801Y-12743031D01*
X12517801Y-12743031D02*
X12527324Y-12733508D01*
X12527324Y-12733508D02*
X12546372Y-12723984D01*
X12698753Y-12904936D02*
X12708277Y-12914460D01*
X12708277Y-12914460D02*
X12698753Y-12923984D01*
X12698753Y-12923984D02*
X12689229Y-12914460D01*
X12689229Y-12914460D02*
X12698753Y-12904936D01*
X12698753Y-12904936D02*
X12698753Y-12923984D01*
X12879705Y-12723984D02*
X12841610Y-12723984D01*
X12841610Y-12723984D02*
X12822562Y-12733508D01*
X12822562Y-12733508D02*
X12813039Y-12743031D01*
X12813039Y-12743031D02*
X12793991Y-12771603D01*
X12793991Y-12771603D02*
X12784467Y-12809698D01*
X12784467Y-12809698D02*
X12784467Y-12885888D01*
X12784467Y-12885888D02*
X12793991Y-12904936D01*
X12793991Y-12904936D02*
X12803515Y-12914460D01*
X12803515Y-12914460D02*
X12822562Y-12923984D01*
X12822562Y-12923984D02*
X12860658Y-12923984D01*
X12860658Y-12923984D02*
X12879705Y-12914460D01*
X12879705Y-12914460D02*
X12889229Y-12904936D01*
X12889229Y-12904936D02*
X12898753Y-12885888D01*
X12898753Y-12885888D02*
X12898753Y-12838269D01*
X12898753Y-12838269D02*
X12889229Y-12819222D01*
X12889229Y-12819222D02*
X12879705Y-12809698D01*
X12879705Y-12809698D02*
X12860658Y-12800174D01*
X12860658Y-12800174D02*
X12822562Y-12800174D01*
X12822562Y-12800174D02*
X12803515Y-12809698D01*
X12803515Y-12809698D02*
X12793991Y-12819222D01*
X12793991Y-12819222D02*
X12784467Y-12838269D01*
X13079705Y-12723984D02*
X12984467Y-12723984D01*
X12984467Y-12723984D02*
X12974943Y-12819222D01*
X12974943Y-12819222D02*
X12984467Y-12809698D01*
X12984467Y-12809698D02*
X13003515Y-12800174D01*
X13003515Y-12800174D02*
X13051134Y-12800174D01*
X13051134Y-12800174D02*
X13070182Y-12809698D01*
X13070182Y-12809698D02*
X13079705Y-12819222D01*
X13079705Y-12819222D02*
X13089229Y-12838269D01*
X13089229Y-12838269D02*
X13089229Y-12885888D01*
X13089229Y-12885888D02*
X13079705Y-12904936D01*
X13079705Y-12904936D02*
X13070182Y-12914460D01*
X13070182Y-12914460D02*
X13051134Y-12923984D01*
X13051134Y-12923984D02*
X13003515Y-12923984D01*
X13003515Y-12923984D02*
X12984467Y-12914460D01*
X12984467Y-12914460D02*
X12974943Y-12904936D01*
X13213039Y-12723984D02*
X13232086Y-12723984D01*
X13232086Y-12723984D02*
X13251134Y-12733508D01*
X13251134Y-12733508D02*
X13260658Y-12743031D01*
X13260658Y-12743031D02*
X13270182Y-12762079D01*
X13270182Y-12762079D02*
X13279705Y-12800174D01*
X13279705Y-12800174D02*
X13279705Y-12847793D01*
X13279705Y-12847793D02*
X13270182Y-12885888D01*
X13270182Y-12885888D02*
X13260658Y-12904936D01*
X13260658Y-12904936D02*
X13251134Y-12914460D01*
X13251134Y-12914460D02*
X13232086Y-12923984D01*
X13232086Y-12923984D02*
X13213039Y-12923984D01*
X13213039Y-12923984D02*
X13193991Y-12914460D01*
X13193991Y-12914460D02*
X13184467Y-12904936D01*
X13184467Y-12904936D02*
X13174943Y-12885888D01*
X13174943Y-12885888D02*
X13165420Y-12847793D01*
X13165420Y-12847793D02*
X13165420Y-12800174D01*
X13165420Y-12800174D02*
X13174943Y-12762079D01*
X13174943Y-12762079D02*
X13184467Y-12743031D01*
X13184467Y-12743031D02*
X13193991Y-12733508D01*
X13193991Y-12733508D02*
X13213039Y-12723984D01*
X13365420Y-12923984D02*
X13365420Y-12790650D01*
X13365420Y-12809698D02*
X13374943Y-12800174D01*
X13374943Y-12800174D02*
X13393991Y-12790650D01*
X13393991Y-12790650D02*
X13422563Y-12790650D01*
X13422563Y-12790650D02*
X13441610Y-12800174D01*
X13441610Y-12800174D02*
X13451134Y-12819222D01*
X13451134Y-12819222D02*
X13451134Y-12923984D01*
X13451134Y-12819222D02*
X13460658Y-12800174D01*
X13460658Y-12800174D02*
X13479705Y-12790650D01*
X13479705Y-12790650D02*
X13508277Y-12790650D01*
X13508277Y-12790650D02*
X13527324Y-12800174D01*
X13527324Y-12800174D02*
X13536848Y-12819222D01*
X13536848Y-12819222D02*
X13536848Y-12923984D01*
X13632086Y-12923984D02*
X13632086Y-12790650D01*
X13632086Y-12809698D02*
X13641610Y-12800174D01*
X13641610Y-12800174D02*
X13660658Y-12790650D01*
X13660658Y-12790650D02*
X13689229Y-12790650D01*
X13689229Y-12790650D02*
X13708277Y-12800174D01*
X13708277Y-12800174D02*
X13717801Y-12819222D01*
X13717801Y-12819222D02*
X13717801Y-12923984D01*
X13717801Y-12819222D02*
X13727324Y-12800174D01*
X13727324Y-12800174D02*
X13746372Y-12790650D01*
X13746372Y-12790650D02*
X13774943Y-12790650D01*
X13774943Y-12790650D02*
X13793991Y-12800174D01*
X13793991Y-12800174D02*
X13803515Y-12819222D01*
X13803515Y-12819222D02*
X13803515Y-12923984D01*
X14193991Y-12714460D02*
X14022563Y-12971603D01*
X14451134Y-12723984D02*
X14470182Y-12723984D01*
X14470182Y-12723984D02*
X14489229Y-12733508D01*
X14489229Y-12733508D02*
X14498753Y-12743031D01*
X14498753Y-12743031D02*
X14508277Y-12762079D01*
X14508277Y-12762079D02*
X14517801Y-12800174D01*
X14517801Y-12800174D02*
X14517801Y-12847793D01*
X14517801Y-12847793D02*
X14508277Y-12885888D01*
X14508277Y-12885888D02*
X14498753Y-12904936D01*
X14498753Y-12904936D02*
X14489229Y-12914460D01*
X14489229Y-12914460D02*
X14470182Y-12923984D01*
X14470182Y-12923984D02*
X14451134Y-12923984D01*
X14451134Y-12923984D02*
X14432086Y-12914460D01*
X14432086Y-12914460D02*
X14422563Y-12904936D01*
X14422563Y-12904936D02*
X14413039Y-12885888D01*
X14413039Y-12885888D02*
X14403515Y-12847793D01*
X14403515Y-12847793D02*
X14403515Y-12800174D01*
X14403515Y-12800174D02*
X14413039Y-12762079D01*
X14413039Y-12762079D02*
X14422563Y-12743031D01*
X14422563Y-12743031D02*
X14432086Y-12733508D01*
X14432086Y-12733508D02*
X14451134Y-12723984D01*
X14603515Y-12904936D02*
X14613039Y-12914460D01*
X14613039Y-12914460D02*
X14603515Y-12923984D01*
X14603515Y-12923984D02*
X14593991Y-12914460D01*
X14593991Y-12914460D02*
X14603515Y-12904936D01*
X14603515Y-12904936D02*
X14603515Y-12923984D01*
X14736848Y-12723984D02*
X14755896Y-12723984D01*
X14755896Y-12723984D02*
X14774944Y-12733508D01*
X14774944Y-12733508D02*
X14784467Y-12743031D01*
X14784467Y-12743031D02*
X14793991Y-12762079D01*
X14793991Y-12762079D02*
X14803515Y-12800174D01*
X14803515Y-12800174D02*
X14803515Y-12847793D01*
X14803515Y-12847793D02*
X14793991Y-12885888D01*
X14793991Y-12885888D02*
X14784467Y-12904936D01*
X14784467Y-12904936D02*
X14774944Y-12914460D01*
X14774944Y-12914460D02*
X14755896Y-12923984D01*
X14755896Y-12923984D02*
X14736848Y-12923984D01*
X14736848Y-12923984D02*
X14717801Y-12914460D01*
X14717801Y-12914460D02*
X14708277Y-12904936D01*
X14708277Y-12904936D02*
X14698753Y-12885888D01*
X14698753Y-12885888D02*
X14689229Y-12847793D01*
X14689229Y-12847793D02*
X14689229Y-12800174D01*
X14689229Y-12800174D02*
X14698753Y-12762079D01*
X14698753Y-12762079D02*
X14708277Y-12743031D01*
X14708277Y-12743031D02*
X14717801Y-12733508D01*
X14717801Y-12733508D02*
X14736848Y-12723984D01*
X14879706Y-12743031D02*
X14889229Y-12733508D01*
X14889229Y-12733508D02*
X14908277Y-12723984D01*
X14908277Y-12723984D02*
X14955896Y-12723984D01*
X14955896Y-12723984D02*
X14974944Y-12733508D01*
X14974944Y-12733508D02*
X14984467Y-12743031D01*
X14984467Y-12743031D02*
X14993991Y-12762079D01*
X14993991Y-12762079D02*
X14993991Y-12781127D01*
X14993991Y-12781127D02*
X14984467Y-12809698D01*
X14984467Y-12809698D02*
X14870182Y-12923984D01*
X14870182Y-12923984D02*
X14993991Y-12923984D01*
X15174944Y-12723984D02*
X15079706Y-12723984D01*
X15079706Y-12723984D02*
X15070182Y-12819222D01*
X15070182Y-12819222D02*
X15079706Y-12809698D01*
X15079706Y-12809698D02*
X15098753Y-12800174D01*
X15098753Y-12800174D02*
X15146372Y-12800174D01*
X15146372Y-12800174D02*
X15165420Y-12809698D01*
X15165420Y-12809698D02*
X15174944Y-12819222D01*
X15174944Y-12819222D02*
X15184467Y-12838269D01*
X15184467Y-12838269D02*
X15184467Y-12885888D01*
X15184467Y-12885888D02*
X15174944Y-12904936D01*
X15174944Y-12904936D02*
X15165420Y-12914460D01*
X15165420Y-12914460D02*
X15146372Y-12923984D01*
X15146372Y-12923984D02*
X15098753Y-12923984D01*
X15098753Y-12923984D02*
X15079706Y-12914460D01*
X15079706Y-12914460D02*
X15070182Y-12904936D01*
X15355896Y-12723984D02*
X15317801Y-12723984D01*
X15317801Y-12723984D02*
X15298753Y-12733508D01*
X15298753Y-12733508D02*
X15289229Y-12743031D01*
X15289229Y-12743031D02*
X15270182Y-12771603D01*
X15270182Y-12771603D02*
X15260658Y-12809698D01*
X15260658Y-12809698D02*
X15260658Y-12885888D01*
X15260658Y-12885888D02*
X15270182Y-12904936D01*
X15270182Y-12904936D02*
X15279706Y-12914460D01*
X15279706Y-12914460D02*
X15298753Y-12923984D01*
X15298753Y-12923984D02*
X15336848Y-12923984D01*
X15336848Y-12923984D02*
X15355896Y-12914460D01*
X15355896Y-12914460D02*
X15365420Y-12904936D01*
X15365420Y-12904936D02*
X15374944Y-12885888D01*
X15374944Y-12885888D02*
X15374944Y-12838269D01*
X15374944Y-12838269D02*
X15365420Y-12819222D01*
X15365420Y-12819222D02*
X15355896Y-12809698D01*
X15355896Y-12809698D02*
X15336848Y-12800174D01*
X15336848Y-12800174D02*
X15298753Y-12800174D01*
X15298753Y-12800174D02*
X15279706Y-12809698D01*
X15279706Y-12809698D02*
X15270182Y-12819222D01*
X15270182Y-12819222D02*
X15260658Y-12838269D01*
X15451134Y-12723984D02*
X15451134Y-12762079D01*
X15527325Y-12723984D02*
X15527325Y-12762079D01*
X15822563Y-13000174D02*
X15813039Y-12990650D01*
X15813039Y-12990650D02*
X15793991Y-12962079D01*
X15793991Y-12962079D02*
X15784468Y-12943031D01*
X15784468Y-12943031D02*
X15774944Y-12914460D01*
X15774944Y-12914460D02*
X15765420Y-12866841D01*
X15765420Y-12866841D02*
X15765420Y-12828746D01*
X15765420Y-12828746D02*
X15774944Y-12781127D01*
X15774944Y-12781127D02*
X15784468Y-12752555D01*
X15784468Y-12752555D02*
X15793991Y-12733508D01*
X15793991Y-12733508D02*
X15813039Y-12704936D01*
X15813039Y-12704936D02*
X15822563Y-12695412D01*
X15889229Y-12743031D02*
X15898753Y-12733508D01*
X15898753Y-12733508D02*
X15917801Y-12723984D01*
X15917801Y-12723984D02*
X15965420Y-12723984D01*
X15965420Y-12723984D02*
X15984468Y-12733508D01*
X15984468Y-12733508D02*
X15993991Y-12743031D01*
X15993991Y-12743031D02*
X16003515Y-12762079D01*
X16003515Y-12762079D02*
X16003515Y-12781127D01*
X16003515Y-12781127D02*
X15993991Y-12809698D01*
X15993991Y-12809698D02*
X15879706Y-12923984D01*
X15879706Y-12923984D02*
X16003515Y-12923984D01*
X16241610Y-12923984D02*
X16241610Y-12723984D01*
X16327325Y-12923984D02*
X16327325Y-12819222D01*
X16327325Y-12819222D02*
X16317801Y-12800174D01*
X16317801Y-12800174D02*
X16298753Y-12790650D01*
X16298753Y-12790650D02*
X16270182Y-12790650D01*
X16270182Y-12790650D02*
X16251134Y-12800174D01*
X16251134Y-12800174D02*
X16241610Y-12809698D01*
X16451134Y-12923984D02*
X16432087Y-12914460D01*
X16432087Y-12914460D02*
X16422563Y-12904936D01*
X16422563Y-12904936D02*
X16413039Y-12885888D01*
X16413039Y-12885888D02*
X16413039Y-12828746D01*
X16413039Y-12828746D02*
X16422563Y-12809698D01*
X16422563Y-12809698D02*
X16432087Y-12800174D01*
X16432087Y-12800174D02*
X16451134Y-12790650D01*
X16451134Y-12790650D02*
X16479706Y-12790650D01*
X16479706Y-12790650D02*
X16498753Y-12800174D01*
X16498753Y-12800174D02*
X16508277Y-12809698D01*
X16508277Y-12809698D02*
X16517801Y-12828746D01*
X16517801Y-12828746D02*
X16517801Y-12885888D01*
X16517801Y-12885888D02*
X16508277Y-12904936D01*
X16508277Y-12904936D02*
X16498753Y-12914460D01*
X16498753Y-12914460D02*
X16479706Y-12923984D01*
X16479706Y-12923984D02*
X16451134Y-12923984D01*
X16632087Y-12923984D02*
X16613039Y-12914460D01*
X16613039Y-12914460D02*
X16603515Y-12895412D01*
X16603515Y-12895412D02*
X16603515Y-12723984D01*
X16784468Y-12914460D02*
X16765420Y-12923984D01*
X16765420Y-12923984D02*
X16727325Y-12923984D01*
X16727325Y-12923984D02*
X16708277Y-12914460D01*
X16708277Y-12914460D02*
X16698753Y-12895412D01*
X16698753Y-12895412D02*
X16698753Y-12819222D01*
X16698753Y-12819222D02*
X16708277Y-12800174D01*
X16708277Y-12800174D02*
X16727325Y-12790650D01*
X16727325Y-12790650D02*
X16765420Y-12790650D01*
X16765420Y-12790650D02*
X16784468Y-12800174D01*
X16784468Y-12800174D02*
X16793992Y-12819222D01*
X16793992Y-12819222D02*
X16793992Y-12838269D01*
X16793992Y-12838269D02*
X16698753Y-12857317D01*
X16870182Y-12914460D02*
X16889230Y-12923984D01*
X16889230Y-12923984D02*
X16927325Y-12923984D01*
X16927325Y-12923984D02*
X16946373Y-12914460D01*
X16946373Y-12914460D02*
X16955896Y-12895412D01*
X16955896Y-12895412D02*
X16955896Y-12885888D01*
X16955896Y-12885888D02*
X16946373Y-12866841D01*
X16946373Y-12866841D02*
X16927325Y-12857317D01*
X16927325Y-12857317D02*
X16898753Y-12857317D01*
X16898753Y-12857317D02*
X16879706Y-12847793D01*
X16879706Y-12847793D02*
X16870182Y-12828746D01*
X16870182Y-12828746D02*
X16870182Y-12819222D01*
X16870182Y-12819222D02*
X16879706Y-12800174D01*
X16879706Y-12800174D02*
X16898753Y-12790650D01*
X16898753Y-12790650D02*
X16927325Y-12790650D01*
X16927325Y-12790650D02*
X16946373Y-12800174D01*
X17022563Y-13000174D02*
X17032087Y-12990650D01*
X17032087Y-12990650D02*
X17051134Y-12962079D01*
X17051134Y-12962079D02*
X17060658Y-12943031D01*
X17060658Y-12943031D02*
X17070182Y-12914460D01*
X17070182Y-12914460D02*
X17079706Y-12866841D01*
X17079706Y-12866841D02*
X17079706Y-12828746D01*
X17079706Y-12828746D02*
X17070182Y-12781127D01*
X17070182Y-12781127D02*
X17060658Y-12752555D01*
X17060658Y-12752555D02*
X17051134Y-12733508D01*
X17051134Y-12733508D02*
X17032087Y-12704936D01*
X17032087Y-12704936D02*
X17022563Y-12695412D01*
X17384468Y-13000174D02*
X17374944Y-12990650D01*
X17374944Y-12990650D02*
X17355896Y-12962079D01*
X17355896Y-12962079D02*
X17346373Y-12943031D01*
X17346373Y-12943031D02*
X17336849Y-12914460D01*
X17336849Y-12914460D02*
X17327325Y-12866841D01*
X17327325Y-12866841D02*
X17327325Y-12828746D01*
X17327325Y-12828746D02*
X17336849Y-12781127D01*
X17336849Y-12781127D02*
X17346373Y-12752555D01*
X17346373Y-12752555D02*
X17355896Y-12733508D01*
X17355896Y-12733508D02*
X17374944Y-12704936D01*
X17374944Y-12704936D02*
X17384468Y-12695412D01*
X17460658Y-12790650D02*
X17460658Y-12923984D01*
X17460658Y-12809698D02*
X17470182Y-12800174D01*
X17470182Y-12800174D02*
X17489230Y-12790650D01*
X17489230Y-12790650D02*
X17517801Y-12790650D01*
X17517801Y-12790650D02*
X17536849Y-12800174D01*
X17536849Y-12800174D02*
X17546373Y-12819222D01*
X17546373Y-12819222D02*
X17546373Y-12923984D01*
X17670182Y-12923984D02*
X17651134Y-12914460D01*
X17651134Y-12914460D02*
X17641611Y-12904936D01*
X17641611Y-12904936D02*
X17632087Y-12885888D01*
X17632087Y-12885888D02*
X17632087Y-12828746D01*
X17632087Y-12828746D02*
X17641611Y-12809698D01*
X17641611Y-12809698D02*
X17651134Y-12800174D01*
X17651134Y-12800174D02*
X17670182Y-12790650D01*
X17670182Y-12790650D02*
X17698754Y-12790650D01*
X17698754Y-12790650D02*
X17717801Y-12800174D01*
X17717801Y-12800174D02*
X17727325Y-12809698D01*
X17727325Y-12809698D02*
X17736849Y-12828746D01*
X17736849Y-12828746D02*
X17736849Y-12885888D01*
X17736849Y-12885888D02*
X17727325Y-12904936D01*
X17727325Y-12904936D02*
X17717801Y-12914460D01*
X17717801Y-12914460D02*
X17698754Y-12923984D01*
X17698754Y-12923984D02*
X17670182Y-12923984D01*
X17793992Y-12790650D02*
X17870182Y-12790650D01*
X17822563Y-12723984D02*
X17822563Y-12895412D01*
X17822563Y-12895412D02*
X17832087Y-12914460D01*
X17832087Y-12914460D02*
X17851134Y-12923984D01*
X17851134Y-12923984D02*
X17870182Y-12923984D01*
X18089230Y-12790650D02*
X18089230Y-12990650D01*
X18089230Y-12800174D02*
X18108277Y-12790650D01*
X18108277Y-12790650D02*
X18146373Y-12790650D01*
X18146373Y-12790650D02*
X18165420Y-12800174D01*
X18165420Y-12800174D02*
X18174944Y-12809698D01*
X18174944Y-12809698D02*
X18184468Y-12828746D01*
X18184468Y-12828746D02*
X18184468Y-12885888D01*
X18184468Y-12885888D02*
X18174944Y-12904936D01*
X18174944Y-12904936D02*
X18165420Y-12914460D01*
X18165420Y-12914460D02*
X18146373Y-12923984D01*
X18146373Y-12923984D02*
X18108277Y-12923984D01*
X18108277Y-12923984D02*
X18089230Y-12914460D01*
X18298754Y-12923984D02*
X18279706Y-12914460D01*
X18279706Y-12914460D02*
X18270182Y-12895412D01*
X18270182Y-12895412D02*
X18270182Y-12723984D01*
X18460658Y-12923984D02*
X18460658Y-12819222D01*
X18460658Y-12819222D02*
X18451135Y-12800174D01*
X18451135Y-12800174D02*
X18432087Y-12790650D01*
X18432087Y-12790650D02*
X18393992Y-12790650D01*
X18393992Y-12790650D02*
X18374944Y-12800174D01*
X18460658Y-12914460D02*
X18441611Y-12923984D01*
X18441611Y-12923984D02*
X18393992Y-12923984D01*
X18393992Y-12923984D02*
X18374944Y-12914460D01*
X18374944Y-12914460D02*
X18365420Y-12895412D01*
X18365420Y-12895412D02*
X18365420Y-12876365D01*
X18365420Y-12876365D02*
X18374944Y-12857317D01*
X18374944Y-12857317D02*
X18393992Y-12847793D01*
X18393992Y-12847793D02*
X18441611Y-12847793D01*
X18441611Y-12847793D02*
X18460658Y-12838269D01*
X18527325Y-12790650D02*
X18603515Y-12790650D01*
X18555896Y-12723984D02*
X18555896Y-12895412D01*
X18555896Y-12895412D02*
X18565420Y-12914460D01*
X18565420Y-12914460D02*
X18584468Y-12923984D01*
X18584468Y-12923984D02*
X18603515Y-12923984D01*
X18746373Y-12914460D02*
X18727325Y-12923984D01*
X18727325Y-12923984D02*
X18689230Y-12923984D01*
X18689230Y-12923984D02*
X18670182Y-12914460D01*
X18670182Y-12914460D02*
X18660658Y-12895412D01*
X18660658Y-12895412D02*
X18660658Y-12819222D01*
X18660658Y-12819222D02*
X18670182Y-12800174D01*
X18670182Y-12800174D02*
X18689230Y-12790650D01*
X18689230Y-12790650D02*
X18727325Y-12790650D01*
X18727325Y-12790650D02*
X18746373Y-12800174D01*
X18746373Y-12800174D02*
X18755896Y-12819222D01*
X18755896Y-12819222D02*
X18755896Y-12838269D01*
X18755896Y-12838269D02*
X18660658Y-12857317D01*
X18927325Y-12923984D02*
X18927325Y-12723984D01*
X18927325Y-12914460D02*
X18908277Y-12923984D01*
X18908277Y-12923984D02*
X18870182Y-12923984D01*
X18870182Y-12923984D02*
X18851135Y-12914460D01*
X18851135Y-12914460D02*
X18841611Y-12904936D01*
X18841611Y-12904936D02*
X18832087Y-12885888D01*
X18832087Y-12885888D02*
X18832087Y-12828746D01*
X18832087Y-12828746D02*
X18841611Y-12809698D01*
X18841611Y-12809698D02*
X18851135Y-12800174D01*
X18851135Y-12800174D02*
X18870182Y-12790650D01*
X18870182Y-12790650D02*
X18908277Y-12790650D01*
X18908277Y-12790650D02*
X18927325Y-12800174D01*
X19003516Y-13000174D02*
X19013039Y-12990650D01*
X19013039Y-12990650D02*
X19032087Y-12962079D01*
X19032087Y-12962079D02*
X19041611Y-12943031D01*
X19041611Y-12943031D02*
X19051135Y-12914460D01*
X19051135Y-12914460D02*
X19060658Y-12866841D01*
X19060658Y-12866841D02*
X19060658Y-12828746D01*
X19060658Y-12828746D02*
X19051135Y-12781127D01*
X19051135Y-12781127D02*
X19041611Y-12752555D01*
X19041611Y-12752555D02*
X19032087Y-12733508D01*
X19032087Y-12733508D02*
X19013039Y-12704936D01*
X19013039Y-12704936D02*
X19003516Y-12695412D01*
D13*
X12247500Y-13096500D02*
G75*
G02*
X12077500Y-13096500I-85000J0D01*
G01*
X12077500Y-13096500D02*
G75*
G02*
X12247500Y-13096500I85000J0D01*
G01*
D11*
X12613039Y-13187984D02*
X12498753Y-13187984D01*
X12555896Y-13187984D02*
X12555896Y-12987984D01*
X12555896Y-12987984D02*
X12536848Y-13016555D01*
X12536848Y-13016555D02*
X12517801Y-13035603D01*
X12517801Y-13035603D02*
X12498753Y-13045127D01*
X12698753Y-13168936D02*
X12708277Y-13178460D01*
X12708277Y-13178460D02*
X12698753Y-13187984D01*
X12698753Y-13187984D02*
X12689229Y-13178460D01*
X12689229Y-13178460D02*
X12698753Y-13168936D01*
X12698753Y-13168936D02*
X12698753Y-13187984D01*
X12774943Y-12987984D02*
X12908277Y-12987984D01*
X12908277Y-12987984D02*
X12822562Y-13187984D01*
X13022562Y-12987984D02*
X13041610Y-12987984D01*
X13041610Y-12987984D02*
X13060658Y-12997508D01*
X13060658Y-12997508D02*
X13070182Y-13007031D01*
X13070182Y-13007031D02*
X13079705Y-13026079D01*
X13079705Y-13026079D02*
X13089229Y-13064174D01*
X13089229Y-13064174D02*
X13089229Y-13111793D01*
X13089229Y-13111793D02*
X13079705Y-13149888D01*
X13079705Y-13149888D02*
X13070182Y-13168936D01*
X13070182Y-13168936D02*
X13060658Y-13178460D01*
X13060658Y-13178460D02*
X13041610Y-13187984D01*
X13041610Y-13187984D02*
X13022562Y-13187984D01*
X13022562Y-13187984D02*
X13003515Y-13178460D01*
X13003515Y-13178460D02*
X12993991Y-13168936D01*
X12993991Y-13168936D02*
X12984467Y-13149888D01*
X12984467Y-13149888D02*
X12974943Y-13111793D01*
X12974943Y-13111793D02*
X12974943Y-13064174D01*
X12974943Y-13064174D02*
X12984467Y-13026079D01*
X12984467Y-13026079D02*
X12993991Y-13007031D01*
X12993991Y-13007031D02*
X13003515Y-12997508D01*
X13003515Y-12997508D02*
X13022562Y-12987984D01*
X13213039Y-12987984D02*
X13232086Y-12987984D01*
X13232086Y-12987984D02*
X13251134Y-12997508D01*
X13251134Y-12997508D02*
X13260658Y-13007031D01*
X13260658Y-13007031D02*
X13270182Y-13026079D01*
X13270182Y-13026079D02*
X13279705Y-13064174D01*
X13279705Y-13064174D02*
X13279705Y-13111793D01*
X13279705Y-13111793D02*
X13270182Y-13149888D01*
X13270182Y-13149888D02*
X13260658Y-13168936D01*
X13260658Y-13168936D02*
X13251134Y-13178460D01*
X13251134Y-13178460D02*
X13232086Y-13187984D01*
X13232086Y-13187984D02*
X13213039Y-13187984D01*
X13213039Y-13187984D02*
X13193991Y-13178460D01*
X13193991Y-13178460D02*
X13184467Y-13168936D01*
X13184467Y-13168936D02*
X13174943Y-13149888D01*
X13174943Y-13149888D02*
X13165420Y-13111793D01*
X13165420Y-13111793D02*
X13165420Y-13064174D01*
X13165420Y-13064174D02*
X13174943Y-13026079D01*
X13174943Y-13026079D02*
X13184467Y-13007031D01*
X13184467Y-13007031D02*
X13193991Y-12997508D01*
X13193991Y-12997508D02*
X13213039Y-12987984D01*
X13365420Y-13187984D02*
X13365420Y-13054650D01*
X13365420Y-13073698D02*
X13374943Y-13064174D01*
X13374943Y-13064174D02*
X13393991Y-13054650D01*
X13393991Y-13054650D02*
X13422563Y-13054650D01*
X13422563Y-13054650D02*
X13441610Y-13064174D01*
X13441610Y-13064174D02*
X13451134Y-13083222D01*
X13451134Y-13083222D02*
X13451134Y-13187984D01*
X13451134Y-13083222D02*
X13460658Y-13064174D01*
X13460658Y-13064174D02*
X13479705Y-13054650D01*
X13479705Y-13054650D02*
X13508277Y-13054650D01*
X13508277Y-13054650D02*
X13527324Y-13064174D01*
X13527324Y-13064174D02*
X13536848Y-13083222D01*
X13536848Y-13083222D02*
X13536848Y-13187984D01*
X13632086Y-13187984D02*
X13632086Y-13054650D01*
X13632086Y-13073698D02*
X13641610Y-13064174D01*
X13641610Y-13064174D02*
X13660658Y-13054650D01*
X13660658Y-13054650D02*
X13689229Y-13054650D01*
X13689229Y-13054650D02*
X13708277Y-13064174D01*
X13708277Y-13064174D02*
X13717801Y-13083222D01*
X13717801Y-13083222D02*
X13717801Y-13187984D01*
X13717801Y-13083222D02*
X13727324Y-13064174D01*
X13727324Y-13064174D02*
X13746372Y-13054650D01*
X13746372Y-13054650D02*
X13774943Y-13054650D01*
X13774943Y-13054650D02*
X13793991Y-13064174D01*
X13793991Y-13064174D02*
X13803515Y-13083222D01*
X13803515Y-13083222D02*
X13803515Y-13187984D01*
X14193991Y-12978460D02*
X14022563Y-13235603D01*
X14451134Y-12987984D02*
X14470182Y-12987984D01*
X14470182Y-12987984D02*
X14489229Y-12997508D01*
X14489229Y-12997508D02*
X14498753Y-13007031D01*
X14498753Y-13007031D02*
X14508277Y-13026079D01*
X14508277Y-13026079D02*
X14517801Y-13064174D01*
X14517801Y-13064174D02*
X14517801Y-13111793D01*
X14517801Y-13111793D02*
X14508277Y-13149888D01*
X14508277Y-13149888D02*
X14498753Y-13168936D01*
X14498753Y-13168936D02*
X14489229Y-13178460D01*
X14489229Y-13178460D02*
X14470182Y-13187984D01*
X14470182Y-13187984D02*
X14451134Y-13187984D01*
X14451134Y-13187984D02*
X14432086Y-13178460D01*
X14432086Y-13178460D02*
X14422563Y-13168936D01*
X14422563Y-13168936D02*
X14413039Y-13149888D01*
X14413039Y-13149888D02*
X14403515Y-13111793D01*
X14403515Y-13111793D02*
X14403515Y-13064174D01*
X14403515Y-13064174D02*
X14413039Y-13026079D01*
X14413039Y-13026079D02*
X14422563Y-13007031D01*
X14422563Y-13007031D02*
X14432086Y-12997508D01*
X14432086Y-12997508D02*
X14451134Y-12987984D01*
X14603515Y-13168936D02*
X14613039Y-13178460D01*
X14613039Y-13178460D02*
X14603515Y-13187984D01*
X14603515Y-13187984D02*
X14593991Y-13178460D01*
X14593991Y-13178460D02*
X14603515Y-13168936D01*
X14603515Y-13168936D02*
X14603515Y-13187984D01*
X14736848Y-12987984D02*
X14755896Y-12987984D01*
X14755896Y-12987984D02*
X14774944Y-12997508D01*
X14774944Y-12997508D02*
X14784467Y-13007031D01*
X14784467Y-13007031D02*
X14793991Y-13026079D01*
X14793991Y-13026079D02*
X14803515Y-13064174D01*
X14803515Y-13064174D02*
X14803515Y-13111793D01*
X14803515Y-13111793D02*
X14793991Y-13149888D01*
X14793991Y-13149888D02*
X14784467Y-13168936D01*
X14784467Y-13168936D02*
X14774944Y-13178460D01*
X14774944Y-13178460D02*
X14755896Y-13187984D01*
X14755896Y-13187984D02*
X14736848Y-13187984D01*
X14736848Y-13187984D02*
X14717801Y-13178460D01*
X14717801Y-13178460D02*
X14708277Y-13168936D01*
X14708277Y-13168936D02*
X14698753Y-13149888D01*
X14698753Y-13149888D02*
X14689229Y-13111793D01*
X14689229Y-13111793D02*
X14689229Y-13064174D01*
X14689229Y-13064174D02*
X14698753Y-13026079D01*
X14698753Y-13026079D02*
X14708277Y-13007031D01*
X14708277Y-13007031D02*
X14717801Y-12997508D01*
X14717801Y-12997508D02*
X14736848Y-12987984D01*
X14974944Y-12987984D02*
X14936848Y-12987984D01*
X14936848Y-12987984D02*
X14917801Y-12997508D01*
X14917801Y-12997508D02*
X14908277Y-13007031D01*
X14908277Y-13007031D02*
X14889229Y-13035603D01*
X14889229Y-13035603D02*
X14879706Y-13073698D01*
X14879706Y-13073698D02*
X14879706Y-13149888D01*
X14879706Y-13149888D02*
X14889229Y-13168936D01*
X14889229Y-13168936D02*
X14898753Y-13178460D01*
X14898753Y-13178460D02*
X14917801Y-13187984D01*
X14917801Y-13187984D02*
X14955896Y-13187984D01*
X14955896Y-13187984D02*
X14974944Y-13178460D01*
X14974944Y-13178460D02*
X14984467Y-13168936D01*
X14984467Y-13168936D02*
X14993991Y-13149888D01*
X14993991Y-13149888D02*
X14993991Y-13102269D01*
X14993991Y-13102269D02*
X14984467Y-13083222D01*
X14984467Y-13083222D02*
X14974944Y-13073698D01*
X14974944Y-13073698D02*
X14955896Y-13064174D01*
X14955896Y-13064174D02*
X14917801Y-13064174D01*
X14917801Y-13064174D02*
X14898753Y-13073698D01*
X14898753Y-13073698D02*
X14889229Y-13083222D01*
X14889229Y-13083222D02*
X14879706Y-13102269D01*
X15165420Y-12987984D02*
X15127325Y-12987984D01*
X15127325Y-12987984D02*
X15108277Y-12997508D01*
X15108277Y-12997508D02*
X15098753Y-13007031D01*
X15098753Y-13007031D02*
X15079706Y-13035603D01*
X15079706Y-13035603D02*
X15070182Y-13073698D01*
X15070182Y-13073698D02*
X15070182Y-13149888D01*
X15070182Y-13149888D02*
X15079706Y-13168936D01*
X15079706Y-13168936D02*
X15089229Y-13178460D01*
X15089229Y-13178460D02*
X15108277Y-13187984D01*
X15108277Y-13187984D02*
X15146372Y-13187984D01*
X15146372Y-13187984D02*
X15165420Y-13178460D01*
X15165420Y-13178460D02*
X15174944Y-13168936D01*
X15174944Y-13168936D02*
X15184467Y-13149888D01*
X15184467Y-13149888D02*
X15184467Y-13102269D01*
X15184467Y-13102269D02*
X15174944Y-13083222D01*
X15174944Y-13083222D02*
X15165420Y-13073698D01*
X15165420Y-13073698D02*
X15146372Y-13064174D01*
X15146372Y-13064174D02*
X15108277Y-13064174D01*
X15108277Y-13064174D02*
X15089229Y-13073698D01*
X15089229Y-13073698D02*
X15079706Y-13083222D01*
X15079706Y-13083222D02*
X15070182Y-13102269D01*
X15279706Y-13187984D02*
X15317801Y-13187984D01*
X15317801Y-13187984D02*
X15336848Y-13178460D01*
X15336848Y-13178460D02*
X15346372Y-13168936D01*
X15346372Y-13168936D02*
X15365420Y-13140365D01*
X15365420Y-13140365D02*
X15374944Y-13102269D01*
X15374944Y-13102269D02*
X15374944Y-13026079D01*
X15374944Y-13026079D02*
X15365420Y-13007031D01*
X15365420Y-13007031D02*
X15355896Y-12997508D01*
X15355896Y-12997508D02*
X15336848Y-12987984D01*
X15336848Y-12987984D02*
X15298753Y-12987984D01*
X15298753Y-12987984D02*
X15279706Y-12997508D01*
X15279706Y-12997508D02*
X15270182Y-13007031D01*
X15270182Y-13007031D02*
X15260658Y-13026079D01*
X15260658Y-13026079D02*
X15260658Y-13073698D01*
X15260658Y-13073698D02*
X15270182Y-13092746D01*
X15270182Y-13092746D02*
X15279706Y-13102269D01*
X15279706Y-13102269D02*
X15298753Y-13111793D01*
X15298753Y-13111793D02*
X15336848Y-13111793D01*
X15336848Y-13111793D02*
X15355896Y-13102269D01*
X15355896Y-13102269D02*
X15365420Y-13092746D01*
X15365420Y-13092746D02*
X15374944Y-13073698D01*
X15451134Y-12987984D02*
X15451134Y-13026079D01*
X15527325Y-12987984D02*
X15527325Y-13026079D01*
X15822563Y-13264174D02*
X15813039Y-13254650D01*
X15813039Y-13254650D02*
X15793991Y-13226079D01*
X15793991Y-13226079D02*
X15784468Y-13207031D01*
X15784468Y-13207031D02*
X15774944Y-13178460D01*
X15774944Y-13178460D02*
X15765420Y-13130841D01*
X15765420Y-13130841D02*
X15765420Y-13092746D01*
X15765420Y-13092746D02*
X15774944Y-13045127D01*
X15774944Y-13045127D02*
X15784468Y-13016555D01*
X15784468Y-13016555D02*
X15793991Y-12997508D01*
X15793991Y-12997508D02*
X15813039Y-12968936D01*
X15813039Y-12968936D02*
X15822563Y-12959412D01*
X15889229Y-13007031D02*
X15898753Y-12997508D01*
X15898753Y-12997508D02*
X15917801Y-12987984D01*
X15917801Y-12987984D02*
X15965420Y-12987984D01*
X15965420Y-12987984D02*
X15984468Y-12997508D01*
X15984468Y-12997508D02*
X15993991Y-13007031D01*
X15993991Y-13007031D02*
X16003515Y-13026079D01*
X16003515Y-13026079D02*
X16003515Y-13045127D01*
X16003515Y-13045127D02*
X15993991Y-13073698D01*
X15993991Y-13073698D02*
X15879706Y-13187984D01*
X15879706Y-13187984D02*
X16003515Y-13187984D01*
X16241610Y-13187984D02*
X16241610Y-12987984D01*
X16327325Y-13187984D02*
X16327325Y-13083222D01*
X16327325Y-13083222D02*
X16317801Y-13064174D01*
X16317801Y-13064174D02*
X16298753Y-13054650D01*
X16298753Y-13054650D02*
X16270182Y-13054650D01*
X16270182Y-13054650D02*
X16251134Y-13064174D01*
X16251134Y-13064174D02*
X16241610Y-13073698D01*
X16451134Y-13187984D02*
X16432087Y-13178460D01*
X16432087Y-13178460D02*
X16422563Y-13168936D01*
X16422563Y-13168936D02*
X16413039Y-13149888D01*
X16413039Y-13149888D02*
X16413039Y-13092746D01*
X16413039Y-13092746D02*
X16422563Y-13073698D01*
X16422563Y-13073698D02*
X16432087Y-13064174D01*
X16432087Y-13064174D02*
X16451134Y-13054650D01*
X16451134Y-13054650D02*
X16479706Y-13054650D01*
X16479706Y-13054650D02*
X16498753Y-13064174D01*
X16498753Y-13064174D02*
X16508277Y-13073698D01*
X16508277Y-13073698D02*
X16517801Y-13092746D01*
X16517801Y-13092746D02*
X16517801Y-13149888D01*
X16517801Y-13149888D02*
X16508277Y-13168936D01*
X16508277Y-13168936D02*
X16498753Y-13178460D01*
X16498753Y-13178460D02*
X16479706Y-13187984D01*
X16479706Y-13187984D02*
X16451134Y-13187984D01*
X16632087Y-13187984D02*
X16613039Y-13178460D01*
X16613039Y-13178460D02*
X16603515Y-13159412D01*
X16603515Y-13159412D02*
X16603515Y-12987984D01*
X16784468Y-13178460D02*
X16765420Y-13187984D01*
X16765420Y-13187984D02*
X16727325Y-13187984D01*
X16727325Y-13187984D02*
X16708277Y-13178460D01*
X16708277Y-13178460D02*
X16698753Y-13159412D01*
X16698753Y-13159412D02*
X16698753Y-13083222D01*
X16698753Y-13083222D02*
X16708277Y-13064174D01*
X16708277Y-13064174D02*
X16727325Y-13054650D01*
X16727325Y-13054650D02*
X16765420Y-13054650D01*
X16765420Y-13054650D02*
X16784468Y-13064174D01*
X16784468Y-13064174D02*
X16793992Y-13083222D01*
X16793992Y-13083222D02*
X16793992Y-13102269D01*
X16793992Y-13102269D02*
X16698753Y-13121317D01*
X16870182Y-13178460D02*
X16889230Y-13187984D01*
X16889230Y-13187984D02*
X16927325Y-13187984D01*
X16927325Y-13187984D02*
X16946373Y-13178460D01*
X16946373Y-13178460D02*
X16955896Y-13159412D01*
X16955896Y-13159412D02*
X16955896Y-13149888D01*
X16955896Y-13149888D02*
X16946373Y-13130841D01*
X16946373Y-13130841D02*
X16927325Y-13121317D01*
X16927325Y-13121317D02*
X16898753Y-13121317D01*
X16898753Y-13121317D02*
X16879706Y-13111793D01*
X16879706Y-13111793D02*
X16870182Y-13092746D01*
X16870182Y-13092746D02*
X16870182Y-13083222D01*
X16870182Y-13083222D02*
X16879706Y-13064174D01*
X16879706Y-13064174D02*
X16898753Y-13054650D01*
X16898753Y-13054650D02*
X16927325Y-13054650D01*
X16927325Y-13054650D02*
X16946373Y-13064174D01*
X17022563Y-13264174D02*
X17032087Y-13254650D01*
X17032087Y-13254650D02*
X17051134Y-13226079D01*
X17051134Y-13226079D02*
X17060658Y-13207031D01*
X17060658Y-13207031D02*
X17070182Y-13178460D01*
X17070182Y-13178460D02*
X17079706Y-13130841D01*
X17079706Y-13130841D02*
X17079706Y-13092746D01*
X17079706Y-13092746D02*
X17070182Y-13045127D01*
X17070182Y-13045127D02*
X17060658Y-13016555D01*
X17060658Y-13016555D02*
X17051134Y-12997508D01*
X17051134Y-12997508D02*
X17032087Y-12968936D01*
X17032087Y-12968936D02*
X17022563Y-12959412D01*
X17384468Y-13264174D02*
X17374944Y-13254650D01*
X17374944Y-13254650D02*
X17355896Y-13226079D01*
X17355896Y-13226079D02*
X17346373Y-13207031D01*
X17346373Y-13207031D02*
X17336849Y-13178460D01*
X17336849Y-13178460D02*
X17327325Y-13130841D01*
X17327325Y-13130841D02*
X17327325Y-13092746D01*
X17327325Y-13092746D02*
X17336849Y-13045127D01*
X17336849Y-13045127D02*
X17346373Y-13016555D01*
X17346373Y-13016555D02*
X17355896Y-12997508D01*
X17355896Y-12997508D02*
X17374944Y-12968936D01*
X17374944Y-12968936D02*
X17384468Y-12959412D01*
X17460658Y-13054650D02*
X17460658Y-13187984D01*
X17460658Y-13073698D02*
X17470182Y-13064174D01*
X17470182Y-13064174D02*
X17489230Y-13054650D01*
X17489230Y-13054650D02*
X17517801Y-13054650D01*
X17517801Y-13054650D02*
X17536849Y-13064174D01*
X17536849Y-13064174D02*
X17546373Y-13083222D01*
X17546373Y-13083222D02*
X17546373Y-13187984D01*
X17670182Y-13187984D02*
X17651134Y-13178460D01*
X17651134Y-13178460D02*
X17641611Y-13168936D01*
X17641611Y-13168936D02*
X17632087Y-13149888D01*
X17632087Y-13149888D02*
X17632087Y-13092746D01*
X17632087Y-13092746D02*
X17641611Y-13073698D01*
X17641611Y-13073698D02*
X17651134Y-13064174D01*
X17651134Y-13064174D02*
X17670182Y-13054650D01*
X17670182Y-13054650D02*
X17698754Y-13054650D01*
X17698754Y-13054650D02*
X17717801Y-13064174D01*
X17717801Y-13064174D02*
X17727325Y-13073698D01*
X17727325Y-13073698D02*
X17736849Y-13092746D01*
X17736849Y-13092746D02*
X17736849Y-13149888D01*
X17736849Y-13149888D02*
X17727325Y-13168936D01*
X17727325Y-13168936D02*
X17717801Y-13178460D01*
X17717801Y-13178460D02*
X17698754Y-13187984D01*
X17698754Y-13187984D02*
X17670182Y-13187984D01*
X17793992Y-13054650D02*
X17870182Y-13054650D01*
X17822563Y-12987984D02*
X17822563Y-13159412D01*
X17822563Y-13159412D02*
X17832087Y-13178460D01*
X17832087Y-13178460D02*
X17851134Y-13187984D01*
X17851134Y-13187984D02*
X17870182Y-13187984D01*
X18089230Y-13054650D02*
X18089230Y-13254650D01*
X18089230Y-13064174D02*
X18108277Y-13054650D01*
X18108277Y-13054650D02*
X18146373Y-13054650D01*
X18146373Y-13054650D02*
X18165420Y-13064174D01*
X18165420Y-13064174D02*
X18174944Y-13073698D01*
X18174944Y-13073698D02*
X18184468Y-13092746D01*
X18184468Y-13092746D02*
X18184468Y-13149888D01*
X18184468Y-13149888D02*
X18174944Y-13168936D01*
X18174944Y-13168936D02*
X18165420Y-13178460D01*
X18165420Y-13178460D02*
X18146373Y-13187984D01*
X18146373Y-13187984D02*
X18108277Y-13187984D01*
X18108277Y-13187984D02*
X18089230Y-13178460D01*
X18298754Y-13187984D02*
X18279706Y-13178460D01*
X18279706Y-13178460D02*
X18270182Y-13159412D01*
X18270182Y-13159412D02*
X18270182Y-12987984D01*
X18460658Y-13187984D02*
X18460658Y-13083222D01*
X18460658Y-13083222D02*
X18451135Y-13064174D01*
X18451135Y-13064174D02*
X18432087Y-13054650D01*
X18432087Y-13054650D02*
X18393992Y-13054650D01*
X18393992Y-13054650D02*
X18374944Y-13064174D01*
X18460658Y-13178460D02*
X18441611Y-13187984D01*
X18441611Y-13187984D02*
X18393992Y-13187984D01*
X18393992Y-13187984D02*
X18374944Y-13178460D01*
X18374944Y-13178460D02*
X18365420Y-13159412D01*
X18365420Y-13159412D02*
X18365420Y-13140365D01*
X18365420Y-13140365D02*
X18374944Y-13121317D01*
X18374944Y-13121317D02*
X18393992Y-13111793D01*
X18393992Y-13111793D02*
X18441611Y-13111793D01*
X18441611Y-13111793D02*
X18460658Y-13102269D01*
X18527325Y-13054650D02*
X18603515Y-13054650D01*
X18555896Y-12987984D02*
X18555896Y-13159412D01*
X18555896Y-13159412D02*
X18565420Y-13178460D01*
X18565420Y-13178460D02*
X18584468Y-13187984D01*
X18584468Y-13187984D02*
X18603515Y-13187984D01*
X18746373Y-13178460D02*
X18727325Y-13187984D01*
X18727325Y-13187984D02*
X18689230Y-13187984D01*
X18689230Y-13187984D02*
X18670182Y-13178460D01*
X18670182Y-13178460D02*
X18660658Y-13159412D01*
X18660658Y-13159412D02*
X18660658Y-13083222D01*
X18660658Y-13083222D02*
X18670182Y-13064174D01*
X18670182Y-13064174D02*
X18689230Y-13054650D01*
X18689230Y-13054650D02*
X18727325Y-13054650D01*
X18727325Y-13054650D02*
X18746373Y-13064174D01*
X18746373Y-13064174D02*
X18755896Y-13083222D01*
X18755896Y-13083222D02*
X18755896Y-13102269D01*
X18755896Y-13102269D02*
X18660658Y-13121317D01*
X18927325Y-13187984D02*
X18927325Y-12987984D01*
X18927325Y-13178460D02*
X18908277Y-13187984D01*
X18908277Y-13187984D02*
X18870182Y-13187984D01*
X18870182Y-13187984D02*
X18851135Y-13178460D01*
X18851135Y-13178460D02*
X18841611Y-13168936D01*
X18841611Y-13168936D02*
X18832087Y-13149888D01*
X18832087Y-13149888D02*
X18832087Y-13092746D01*
X18832087Y-13092746D02*
X18841611Y-13073698D01*
X18841611Y-13073698D02*
X18851135Y-13064174D01*
X18851135Y-13064174D02*
X18870182Y-13054650D01*
X18870182Y-13054650D02*
X18908277Y-13054650D01*
X18908277Y-13054650D02*
X18927325Y-13064174D01*
X19003516Y-13264174D02*
X19013039Y-13254650D01*
X19013039Y-13254650D02*
X19032087Y-13226079D01*
X19032087Y-13226079D02*
X19041611Y-13207031D01*
X19041611Y-13207031D02*
X19051135Y-13178460D01*
X19051135Y-13178460D02*
X19060658Y-13130841D01*
X19060658Y-13130841D02*
X19060658Y-13092746D01*
X19060658Y-13092746D02*
X19051135Y-13045127D01*
X19051135Y-13045127D02*
X19041611Y-13016555D01*
X19041611Y-13016555D02*
X19032087Y-12997508D01*
X19032087Y-12997508D02*
X19013039Y-12968936D01*
X19013039Y-12968936D02*
X19003516Y-12959412D01*
M02*
