%TF.GenerationSoftware,KiCad,Pcbnew,10.0.4*%
%TF.CreationDate,2026-07-25T17:27:36-04:00*%
%TF.ProjectId,USB23.5mm,55534232-332e-4356-9d6d-2e6b69636164,rev?*%
%TF.SameCoordinates,Original*%
%TF.FileFunction,Paste,Top*%
%TF.FilePolarity,Positive*%
%FSLAX46Y46*%
G04 Gerber Fmt 4.6, Leading zero omitted, Abs format (unit mm)*
G04 Created by KiCad (PCBNEW 10.0.4) date 2026-07-25 17:27:36*
%MOMM*%
%LPD*%
G01*
G04 APERTURE LIST*
G04 Aperture macros list*
%AMRoundRect*
0 Rectangle with rounded corners*
0 $1 Rounding radius*
0 $2 $3 $4 $5 $6 $7 $8 $9 X,Y pos of 4 corners*
0 Add a 4 corners polygon primitive as box body*
4,1,4,$2,$3,$4,$5,$6,$7,$8,$9,$2,$3,0*
0 Add four circle primitives for the rounded corners*
1,1,$1+$1,$2,$3*
1,1,$1+$1,$4,$5*
1,1,$1+$1,$6,$7*
1,1,$1+$1,$8,$9*
0 Add four rect primitives between the rounded corners*
20,1,$1+$1,$2,$3,$4,$5,0*
20,1,$1+$1,$4,$5,$6,$7,0*
20,1,$1+$1,$6,$7,$8,$9,0*
20,1,$1+$1,$8,$9,$2,$3,0*%
G04 Aperture macros list end*
%ADD10RoundRect,0.162500X0.162500X-0.367500X0.162500X0.367500X-0.162500X0.367500X-0.162500X-0.367500X0*%
%ADD11RoundRect,0.250000X-0.337500X-0.475000X0.337500X-0.475000X0.337500X0.475000X-0.337500X0.475000X0*%
%ADD12RoundRect,0.250000X-0.475000X0.337500X-0.475000X-0.337500X0.475000X-0.337500X0.475000X0.337500X0*%
%ADD13RoundRect,0.075000X-0.662500X-0.075000X0.662500X-0.075000X0.662500X0.075000X-0.662500X0.075000X0*%
%ADD14RoundRect,0.075000X-0.075000X-0.662500X0.075000X-0.662500X0.075000X0.662500X-0.075000X0.662500X0*%
%ADD15RoundRect,0.250000X0.262500X0.450000X-0.262500X0.450000X-0.262500X-0.450000X0.262500X-0.450000X0*%
%ADD16RoundRect,0.250000X-0.300000X-0.300000X0.300000X-0.300000X0.300000X0.300000X-0.300000X0.300000X0*%
%ADD17RoundRect,0.250000X0.475000X-0.337500X0.475000X0.337500X-0.475000X0.337500X-0.475000X-0.337500X0*%
%ADD18RoundRect,0.250000X0.337500X0.475000X-0.337500X0.475000X-0.337500X-0.475000X0.337500X-0.475000X0*%
%ADD19RoundRect,0.250000X-0.262500X-0.450000X0.262500X-0.450000X0.262500X0.450000X-0.262500X0.450000X0*%
%ADD20RoundRect,0.250000X-0.450000X0.262500X-0.450000X-0.262500X0.450000X-0.262500X0.450000X0.262500X0*%
%ADD21R,2.800000X2.200000*%
%ADD22R,2.800000X2.800000*%
%ADD23RoundRect,0.250001X-0.799999X-2.474999X0.799999X-2.474999X0.799999X2.474999X-0.799999X2.474999X0*%
%ADD24RoundRect,0.250000X0.450000X-0.262500X0.450000X0.262500X-0.450000X0.262500X-0.450000X-0.262500X0*%
%ADD25RoundRect,0.145000X-0.145000X-0.145000X0.145000X-0.145000X0.145000X0.145000X-0.145000X0.145000X0*%
%ADD26RoundRect,0.062500X-0.375000X-0.062500X0.375000X-0.062500X0.375000X0.062500X-0.375000X0.062500X0*%
%ADD27RoundRect,0.062500X-0.062500X-0.375000X0.062500X-0.375000X0.062500X0.375000X-0.062500X0.375000X0*%
%ADD28RoundRect,0.150000X-0.425000X0.150000X-0.425000X-0.150000X0.425000X-0.150000X0.425000X0.150000X0*%
%ADD29RoundRect,0.075000X-0.500000X0.075000X-0.500000X-0.075000X0.500000X-0.075000X0.500000X0.075000X0*%
%ADD30RoundRect,0.218750X-0.218750X-0.381250X0.218750X-0.381250X0.218750X0.381250X-0.218750X0.381250X0*%
G04 APERTURE END LIST*
D10*
%TO.C,D2*%
X137150000Y-92550000D03*
X138100000Y-92550000D03*
X139050000Y-92550000D03*
X139050000Y-90350000D03*
X138100000Y-90350000D03*
X137150000Y-90350000D03*
%TD*%
D11*
%TO.C,C8*%
X148962500Y-115500000D03*
X151037500Y-115500000D03*
%TD*%
D12*
%TO.C,C12*%
X164500000Y-102925000D03*
X164500000Y-105000000D03*
%TD*%
D13*
%TO.C,U1*%
X146337500Y-95250000D03*
X146337500Y-95750000D03*
X146337500Y-96250000D03*
X146337500Y-96750000D03*
X146337500Y-97250000D03*
X146337500Y-97750000D03*
X146337500Y-98250000D03*
X146337500Y-98750000D03*
X146337500Y-99250000D03*
X146337500Y-99750000D03*
X146337500Y-100250000D03*
X146337500Y-100750000D03*
D14*
X147750000Y-102162500D03*
X148250000Y-102162500D03*
X148750000Y-102162500D03*
X149250000Y-102162500D03*
X149750000Y-102162500D03*
X150250000Y-102162500D03*
X150750000Y-102162500D03*
X151250000Y-102162500D03*
X151750000Y-102162500D03*
X152250000Y-102162500D03*
X152750000Y-102162500D03*
X153250000Y-102162500D03*
D13*
X154662500Y-100750000D03*
X154662500Y-100250000D03*
X154662500Y-99750000D03*
X154662500Y-99250000D03*
X154662500Y-98750000D03*
X154662500Y-98250000D03*
X154662500Y-97750000D03*
X154662500Y-97250000D03*
X154662500Y-96750000D03*
X154662500Y-96250000D03*
X154662500Y-95750000D03*
X154662500Y-95250000D03*
D14*
X153250000Y-93837500D03*
X152750000Y-93837500D03*
X152250000Y-93837500D03*
X151750000Y-93837500D03*
X151250000Y-93837500D03*
X150750000Y-93837500D03*
X150250000Y-93837500D03*
X149750000Y-93837500D03*
X149250000Y-93837500D03*
X148750000Y-93837500D03*
X148250000Y-93837500D03*
X147750000Y-93837500D03*
%TD*%
D11*
%TO.C,C6*%
X165462500Y-99500000D03*
X167537500Y-99500000D03*
%TD*%
%TO.C,C5*%
X159962500Y-95500000D03*
X162037500Y-95500000D03*
%TD*%
D15*
%TO.C,R9*%
X150912500Y-105000000D03*
X149087500Y-105000000D03*
%TD*%
D16*
%TO.C,D1*%
X135100000Y-83500000D03*
X137900000Y-83500000D03*
%TD*%
D17*
%TO.C,C3*%
X159000000Y-93537500D03*
X159000000Y-91462500D03*
%TD*%
D18*
%TO.C,C10*%
X150537500Y-107500000D03*
X148462500Y-107500000D03*
%TD*%
D11*
%TO.C,C13*%
X160962500Y-116500000D03*
X163037500Y-116500000D03*
%TD*%
D12*
%TO.C,C1*%
X147000000Y-83962500D03*
X147000000Y-86037500D03*
%TD*%
D19*
%TO.C,R2*%
X136087500Y-87000000D03*
X137912500Y-87000000D03*
%TD*%
D20*
%TO.C,R3*%
X133500000Y-96087500D03*
X133500000Y-97912500D03*
%TD*%
D21*
%TO.C,J2*%
X135700000Y-113900000D03*
X143100000Y-115900000D03*
D22*
X143100000Y-106500000D03*
%TD*%
D23*
%TO.C,F1*%
X133525000Y-78650000D03*
X140475000Y-78650000D03*
%TD*%
D24*
%TO.C,R5*%
X164500000Y-108912500D03*
X164500000Y-107087500D03*
%TD*%
D17*
%TO.C,C9*%
X150000000Y-113037500D03*
X150000000Y-110962500D03*
%TD*%
D12*
%TO.C,C11*%
X161000000Y-102962500D03*
X161000000Y-105037500D03*
%TD*%
D15*
%TO.C,R8*%
X154912500Y-105000000D03*
X153087500Y-105000000D03*
%TD*%
D25*
%TO.C,U2*%
X153702500Y-110390000D03*
X153702500Y-111110000D03*
X154422500Y-110390000D03*
X154422500Y-111110000D03*
D26*
X152625000Y-110000000D03*
X152625000Y-110500000D03*
X152625000Y-111000000D03*
X152625000Y-111500000D03*
D27*
X153312500Y-112187500D03*
X153812500Y-112187500D03*
X154312500Y-112187500D03*
X154812500Y-112187500D03*
D26*
X155500000Y-111500000D03*
X155500000Y-111000000D03*
X155500000Y-110500000D03*
X155500000Y-110000000D03*
D27*
X154812500Y-109312500D03*
X154312500Y-109312500D03*
X153812500Y-109312500D03*
X153312500Y-109312500D03*
%TD*%
D20*
%TO.C,R11*%
X154000000Y-114587500D03*
X154000000Y-116412500D03*
%TD*%
D19*
%TO.C,R6*%
X153687500Y-118400000D03*
X155512500Y-118400000D03*
%TD*%
%TO.C,R7*%
X147187500Y-119600000D03*
X149012500Y-119600000D03*
%TD*%
D18*
%TO.C,C16*%
X163037500Y-114500000D03*
X160962500Y-114500000D03*
%TD*%
D12*
%TO.C,C14*%
X157000000Y-104462500D03*
X157000000Y-106537500D03*
%TD*%
D18*
%TO.C,C7*%
X167137500Y-87150000D03*
X165062500Y-87150000D03*
%TD*%
D28*
%TO.C,J1*%
X131670000Y-86300000D03*
X131670000Y-87100000D03*
D29*
X131670000Y-88250000D03*
X131670000Y-89250000D03*
X131670000Y-89750000D03*
X131670000Y-90750000D03*
D28*
X131670000Y-91900000D03*
X131670000Y-92700000D03*
X131670000Y-92700000D03*
X131670000Y-91900000D03*
D29*
X131670000Y-91250000D03*
X131670000Y-90250000D03*
X131670000Y-88750000D03*
X131670000Y-87750000D03*
D28*
X131670000Y-87100000D03*
X131670000Y-86300000D03*
%TD*%
D24*
%TO.C,R4*%
X160500000Y-108912500D03*
X160500000Y-107087500D03*
%TD*%
D20*
%TO.C,R10*%
X157500000Y-114587500D03*
X157500000Y-116412500D03*
%TD*%
D12*
%TO.C,C4*%
X157000000Y-100462500D03*
X157000000Y-102537500D03*
%TD*%
D18*
%TO.C,C15*%
X140337500Y-97600000D03*
X138262500Y-97600000D03*
%TD*%
D30*
%TO.C,FB1*%
X159937500Y-89500000D03*
X162062500Y-89500000D03*
%TD*%
D24*
%TO.C,R1*%
X127000000Y-98062500D03*
X127000000Y-96237500D03*
%TD*%
D17*
%TO.C,C2*%
X143100000Y-80037500D03*
X143100000Y-77962500D03*
%TD*%
M02*
